<svg width="16" height="17" viewBox="0 0 16 17" fill="none" xmlns="http://www.w3.org/2000/svg">
<path d="M14.1891 6.26421L10.2219 5.68765L8.44844 2.09234C8.4 1.9939 8.32031 1.91421 8.22187 1.86578C7.975 1.7439 7.675 1.84546 7.55156 2.09234L5.77812 5.68765L1.81094 6.26421C1.70156 6.27984 1.60156 6.3314 1.525 6.40953C1.43244 6.50466 1.38143 6.63265 1.38319 6.76537C1.38495 6.8981 1.43933 7.02469 1.53437 7.11734L4.40469 9.91578L3.72656 13.8673C3.71066 13.9593 3.72083 14.0538 3.75592 14.1402C3.79102 14.2267 3.84963 14.3015 3.92511 14.3564C4.00059 14.4112 4.08992 14.4438 4.18297 14.4504C4.27602 14.457 4.36907 14.4375 4.45156 14.3939L8 12.5283L11.5484 14.3939C11.6453 14.4455 11.7578 14.4627 11.8656 14.4439C12.1375 14.397 12.3203 14.1392 12.2734 13.8673L11.5953 9.91578L14.4656 7.11734C14.5437 7.04078 14.5953 6.94078 14.6109 6.8314C14.6531 6.55796 14.4625 6.30484 14.1891 6.26421Z" fill="#FEA250"/>
</svg>
